{"title":"The Warriors Way-AC3-XviD-BRRip 2010 TBS","uid":6272106,"size":1568975857,"categoryP":"video","categoryS":"movies","magnet":"?xt=urn:btih:4de309de5537cffefdc2e6c77ac7d9aab3eb852d&amp;dn=The+Warriors+Way-AC3-XviD-BRRip+2010+TBS&amp;tr=udp%3A%2F%2Ftracker.openbittorrent.com%3A80&amp;tr=udp%3A%2F%2Fopen.demonii.com%3A1337&amp;tr=udp%3A%2F%2Ftracker.coppersurfer.tk%3A6969&amp;tr=udp%3A%2F%2Fexodus.desync.com%3A6969","seeders":0,"leechers":0,"uploader":"FatFreddy30","files":-1,"time":1301138420,"description":"A  warrior-assassin is forced to hide in a small town in the American Badlands after refusing a mission...\n &lt;a href=&quot;\nhttp://www.imdb.com/title/tt1032751/&quot; rel=&quot;nofollow&quot; target=&quot;_NEW&quot;&gt;\nhttp://www.imdb.com/title/tt1032751/&lt;/a&gt;\n\nSubtitles: Dutch, English.\n\n\nDe Aziatische Yang is een samoerai die al zijn hele leven traint om 's werelds beste zwaardvechter te worden. Wanneer hij de baby van de vijand moet doden, besluit hij zich van zijn clan af te zetten en met het kind naar het Wilde Westen te vluchten. Hier leert hij de messenwerpster Lynne kennen. Wanneer zij in de problemen komt, is Yang gedwongen zijn zwaard weer op te pakken...\n &lt;a href=&quot;\nhttp://www.moviemeter.nl/film/59857&quot; rel=&quot;nofollow&quot; target=&quot;_NEW&quot;&gt;\nhttp://www.moviemeter.nl/film/59857&lt;/a&gt;\n\nOndertitels: Engels, Nederlands.\n\nGeneral\nComplete name                    : The Warriors Way-AC3-XviD-BRRip 2010.avi\nFormat                           : AVI\nFormat/Info                      : Audio Video Interleave\nFile size                        : 1.46 GiB\nDuration                         : 1h 40mn\nOverall bit rate                 : 2 086 Kbps\nWriting application              : VirtualDubMod 1.5.4.1 (build 2178/release)\nWriting library                  : VirtualDubMod build 2178/release\nSource                           : The.Warriors.Way.2010.720p.BluRay.X264-AMIABLE\n\nVideo\nID                               : 0\nFormat                           : MPEG-4 Visual\nFormat profile                   : Simple@L3\nFormat settings, BVOP            : No\nFormat settings, QPel            : No\nFormat settings, GMC             : No warppoints\nFormat settings, Matrix          : Default (H.263)\nCodec ID                         : XVID\nCodec ID/Hint                    : XviD\nDuration                         : 1h 40mn\nBit rate                         : 1 629 Kbps\nWidth                            : 720 pixels\nHeight                           : 304 pixels\nDisplay aspect ratio             : 2.35:1\nFrame rate                       : 23.976 fps\nResolution                       : 8 bits\nColorimetry                      : 4:2:0\nScan type                        : Progressive\nBits/(Pixel*Frame)               : 0.310\nStream size                      : 1.14 GiB (78%)\nWriting library                  : XviD 1.1.2 (UTC 2006-11-01)\n\nAudio\nID                               : 1\nFormat                           : AC-3\nFormat/Info                      : Audio Coding 3\nCodec ID                         : 2000\nDuration                         : 1h 40mn\nBit rate mode                    : Constant\nBit rate                         : 448 Kbps\nChannel(s)                       : 6 channels\nChannel positions                : Front: L C R, Surround: L R, LFE\nSampling rate                    : 48.0 KHz\nStream size                      : 321 MiB (21%)\nAlignment                        : Split accross interleaves\nInterleave, duration             : 42 ms (1.00 video frame)\nInterleave, preload duration     : 500 ms\n\nThanks to  Simply Releases Toppers.\n\nEnjoy...\n\nTBS.","torrent":{"xt":"urn:btih:4de309de5537cffefdc2e6c77ac7d9aab3eb852d","amp;dn":"The+Warriors+Way-AC3-XviD-BRRip+2010+TBS","amp;tr":["udp%3A%2F%2Ftracker.openbittorrent.com%3A80","udp%3A%2F%2Fopen.demonii.com%3A1337","udp%3A%2F%2Ftracker.coppersurfer.tk%3A6969","udp%3A%2F%2Fexodus.desync.com%3A6969"],"infoHash":"4de309de5537cffefdc2e6c77ac7d9aab3eb852d","infoHashBuffer":{"type":"Buffer","data":[77,227,9,222,85,55,207,254,253,194,230,199,122,199,217,170,179,235,133,45]},"announce":[],"urlList":[]}}